<svg xmlns="http://www.w3.org/2000/svg" width="100mm" height="100mm" viewBox="0 0 100 100">
  <defs>
    <style>
      .s { stroke:#2D2A32; stroke-width:2; stroke-linecap:round; stroke-linejoin:round; }
      .ln { fill:none; stroke:#2D2A32; stroke-width:2; stroke-linecap:round; stroke-linejoin:round; }
      .eye { fill:#2D2A32; }
      .bg { stroke:#2D2A32; stroke-width:2; }
    </style>
  </defs>
  <g id="a9">

      <circle class="bg" cx="50" cy="50" r="47" fill="#E0F7FA"/>
      <ellipse class="s" cx="50" cy="56" rx="19" ry="21" fill="#F1C27D"/>
      <path class="s" d="M35 34 Q35 14 50 14 Q65 14 65 34 Q58 28 50 28 Q42 28 35 34 Z" fill="#FFFFFF"/>
      <rect class="s" x="34" y="32" width="32" height="4" rx="2" fill="#E85D75"/>
      <rect class="s" x="46" y="16" width="3" height="8" fill="#E85D75"/>
      <rect class="s" x="43.5" y="18.5" width="8" height="3" fill="#E85D75"/>
      <circle class="eye" cx="43" cy="55" r="2.5"/>
      <circle class="eye" cx="57" cy="55" r="2.5"/>
      <rect class="s" x="40" y="62" width="20" height="12" rx="3" fill="#FFFFFF"/>
      <line class="ln" x1="43" y1="68" x2="47" y2="68"/>
      <path class="ln" d="M50 74 L50 82 Q50 86 44 88"/>
      <circle class="s" cx="42" cy="88" r="4" fill="#4A90E2"/>
      <path class="s" d="M31 78 Q31 92 50 92 Q69 92 69 78 L69 74 Q50 80 31 74 Z" fill="#FFFFFF"/>
      </g>
</svg>
