<svg xmlns="http://www.w3.org/2000/svg" width="100mm" height="100mm" viewBox="0 0 100 100">
  <defs>
    <style>
      .s { stroke:#2D2A32; stroke-width:2; stroke-linecap:round; stroke-linejoin:round; }
      .ln { fill:none; stroke:#2D2A32; stroke-width:2; stroke-linecap:round; stroke-linejoin:round; }
      .eye { fill:#2D2A32; }
      .bg { stroke:#2D2A32; stroke-width:2; }
    </style>
  </defs>
  <g id="a6">

      <circle class="bg" cx="50" cy="50" r="47" fill="#FFE3E3"/>
      <ellipse class="s" cx="50" cy="56" rx="19" ry="20" fill="#F5D6B8"/>
      <path class="s" d="M31 50 Q29 22 50 22 Q71 22 69 50 Q66 34 50 35 Q34 34 31 50 Z" fill="#E0E0E0"/>
      <circle class="s" cx="50" cy="16" r="8" fill="#E0E0E0"/>
      <circle class="s" cx="30" cy="62" r="2.5" fill="#D4AF37"/>
      <circle class="s" cx="70" cy="62" r="2.5" fill="#D4AF37"/>
      <circle class="eye" cx="44" cy="56" r="2.5"/>
      <circle class="eye" cx="56" cy="56" r="2.5"/>
      <path class="ln" d="M46 64 Q50 67 54 64"/>
      <line class="ln" x1="40" y1="62" x2="36" y2="64"/>
      <line class="ln" x1="60" y1="62" x2="64" y2="64"/>
      <path class="s" d="M31 78 Q31 92 50 92 Q69 92 69 78 L69 74 Q50 80 31 74 Z" fill="#C77DF0"/>
      </g>
</svg>
